<svg viewBox="0 0 1059.74 294.18" xmlns="http://www.w3.org/2000/svg"><switch><g><path d="M98.56 212.37c0 2.5-.42 4.58-1.27 6.23s-2.05 2.97-3.62 3.95c-1.56.98-3.46 1.67-5.7 2.08-2.23.4-4.71.6-7.44.6H68.95v-44.69c1.83-.18 3.57-.32 5.23-.44 1.65-.11 3.55-.17 5.69-.17 3.08 0 5.68.25 7.81.74 2.12.49 3.83 1.21 5.13 2.14 1.29.94 2.23 2.11 2.81 3.52s.87 3 .87 4.79c0 1.56-.22 2.94-.67 4.12s-.99 2.2-1.64 3.05-1.35 1.54-2.11 2.08-1.45.94-2.08 1.21c.71.18 1.57.48 2.58.91 1.01.42 1.94 1.04 2.81 1.84s1.62 1.85 2.24 3.15c.63 1.29.94 2.92.94 4.89zm-7.9-21.04c0-1.38-.28-2.51-.84-3.38s-1.33-1.54-2.31-2.01-2.16-.79-3.52-.97-2.85-.27-4.46-.27c-1.07 0-2.01.02-2.81.07-.8.04-1.45.11-1.94.2v14.74h6.36c2.77 0 5.05-.73 6.83-2.18 1.79-1.45 2.69-3.52 2.69-6.2zM79 220.34c2.01 0 3.84-.09 5.49-.27s3.08-.54 4.29-1.1 2.14-1.37 2.81-2.44 1-2.49 1-4.27c0-1.56-.31-2.84-.94-3.84s-1.47-1.8-2.55-2.4c-1.07-.6-2.29-1.01-3.65-1.23s-2.78-.33-4.25-.33h-6.43v15.88zm38.39 1.01c1.29 0 2.42-.13 3.38-.4s1.79-.6 2.48-1 1.28-.81 1.78-1.24c.49-.42.89-.81 1.21-1.17.49.63.93 1.3 1.31 2.01s.57 1.27.57 1.68c0 .36-.11.73-.33 1.12s-.6.78-1.14 1.19c-1.03.77-2.34 1.42-3.95 1.94s-3.55.78-5.83.78c-2.1 0-4.08-.3-5.93-.9s-3.48-1.57-4.88-2.92c-1.4-1.34-2.5-3.09-3.32-5.26-.81-2.17-1.22-4.81-1.22-7.94 0-2.81.41-5.25 1.24-7.3s1.91-3.74 3.25-5.06 2.87-2.29 4.59-2.92c1.72-.62 3.49-.94 5.33-.94 2.28 0 4.23.38 5.86 1.14s2.96 1.78 3.99 3.05 1.79 2.75 2.28 4.42.74 3.41.74 5.19c0 .63-.01 1.26-.03 1.91s-.08 1.26-.17 1.84h-21.1c.13 3.24.99 5.85 2.58 7.82 1.56 1.97 4 2.96 7.31 2.96zm5.69-15.08c0-1.21-.12-2.32-.37-3.35a7.383 7.383 0 0 0-1.23-2.71c-.58-.78-1.35-1.4-2.3-1.84-.96-.45-2.12-.67-3.5-.67-2.31 0-4.21.76-5.7 2.28s-2.32 3.62-2.5 6.3h15.6zm10.66 14.94c-.31-.85-.5-1.78-.57-2.78s-.1-2-.1-2.98v-31.36h.4c.09 0 .21-.01.37-.03s.3-.03.44-.03c1.21 0 2.26.31 3.15.93s1.34 1.75 1.34 3.39v5.32h9.98v4.89h-9.98v17.29c0 3.66 1.45 5.49 4.35 5.49.71 0 1.38-.12 2.01-.37a8.85 8.85 0 0 0 1.68-.87c.49-.33.9-.66 1.24-.97s.55-.54.64-.67c.54.67.99 1.32 1.37 1.94.38.63.57 1.23.57 1.81 0 .4-.2.84-.6 1.31s-.96.91-1.67 1.31c-.72.4-1.6.74-2.65 1-1.05.27-2.2.4-3.45.4-2.32 0-4.18-.45-5.56-1.34-1.4-.88-2.38-2.11-2.96-3.68zm40.73-14.8c0-.85-.01-1.66-.03-2.45-.02-.78-.15-1.51-.37-2.18-.31-1.16-.96-2.05-1.94-2.68-.98-.62-2.44-.94-4.35-.94-1.25 0-2.4.15-3.45.44s-1.94.66-2.68 1.11-1.31.96-1.71 1.54-.6 1.16-.6 1.74v22.24h-5.69v-47.5h.33c.09 0 .21-.01.37-.03s.3-.03.44-.03c1.25 0 2.31.31 3.18.94s1.31 1.79 1.31 3.48v14.87c1.16-1.29 2.64-2.28 4.42-2.95 1.79-.67 3.69-1 5.7-1 1.56 0 2.94.19 4.12.57s2.19.89 3.01 1.54c.83.65 1.51 1.4 2.04 2.24.54.85.92 1.74 1.14 2.68.22.89.36 1.89.4 2.98.04 1.1.07 2.16.07 3.18v19.03h-5.7v-18.82zm27.94 18.82h-5.96v-44.89c.18 0 .36-.02.54-.07.18 0 .36-.01.54-.03s.38-.03.61-.03c.41 0 .85.06 1.32.17s.94.31 1.39.6.83.71 1.12 1.27.44 1.28.44 2.18zm23.78-30.42c.9.49 1.5.95 1.81 1.37.31.43.47.84.47 1.24 0 .49-.12 1.06-.37 1.71s-.55 1.29-.91 1.91l-.94.07c-.76-.94-1.87-1.75-3.33-2.45a10.82 10.82 0 0 0-4.68-1.04c-.58 0-1.22.06-1.92.17-.69.11-1.35.31-1.95.6s-1.11.7-1.51 1.24-.6 1.21-.6 2.01c0 1.43.64 2.46 1.92 3.08 1.28.63 2.86 1.16 4.74 1.61 1.35.31 2.65.7 3.9 1.17 1.26.47 2.37 1.07 3.33 1.81s1.73 1.66 2.29 2.78.84 2.5.84 4.15-.34 3.09-1.01 4.32-1.57 2.26-2.69 3.08c-1.12.83-2.43 1.45-3.93 1.88-1.5.42-3.06.64-4.67.64-1.57 0-2.98-.12-4.23-.37s-2.31-.55-3.16-.9c-1.12-.45-1.9-.9-2.35-1.37s-.67-.95-.67-1.44c0-.58.16-1.18.47-1.81.31-.62.71-1.34 1.21-2.14.31.27.75.6 1.31 1s1.23.78 2.01 1.14 1.64.66 2.58.9c.94.25 1.94.37 3.01.37.8 0 1.58-.08 2.35-.24.76-.16 1.44-.42 2.04-.78s1.09-.85 1.47-1.48.57-1.42.57-2.36-.2-1.72-.6-2.33-.94-1.11-1.61-1.52c-.67-.4-1.42-.73-2.24-.98-.83-.25-1.66-.46-2.51-.64-1.3-.27-2.54-.61-3.72-1.03s-2.23-.99-3.15-1.7-1.65-1.6-2.21-2.67-.84-2.36-.84-3.87c0-1.47.31-2.77.94-3.91a8.15 8.15 0 0 1 2.55-2.8c1.08-.73 2.3-1.29 3.66-1.67 1.37-.38 2.79-.57 4.27-.57 1.7 0 3.26.18 4.67.54 1.4.37 2.54.79 3.39 1.28zm8.65-1.27c1.03 0 1.95.26 2.78.77s1.33 1.37 1.51 2.58c.62-.94 1.56-1.82 2.81-2.65s2.7-1.24 4.35-1.24c.49 0 1.02.04 1.57.13.56.09 1.08.23 1.57.44.49.2.89.48 1.21.84.31.36.47.83.47 1.41 0 .71-.18 1.49-.54 2.31-.36.83-.72 1.51-1.07 2.04-.58-.54-1.21-.95-1.88-1.24s-1.52-.44-2.55-.44c-.76 0-1.49.12-2.18.37s-1.31.58-1.84 1c-.54.42-.96.9-1.27 1.44s-.47 1.09-.47 1.67v22.24h-5.69v-31.62h.47c.13 0 .27-.01.4-.03.15-.01.26-.02.35-.02zm42.27 24.39c0 1.07.04 1.91.13 2.51s.26 1.05.5 1.34.58.48 1 .57.97.13 1.64.13v2.68c-.4.13-.89.25-1.47.33-.58.09-1.18.13-1.81.13-1.4 0-2.62-.28-3.66-.84s-1.65-1.55-1.83-2.98c-1.12 1.12-2.46 2.07-4.02 2.85s-3.62 1.17-6.16 1.17c-1.16 0-2.33-.13-3.52-.4-1.18-.27-2.26-.76-3.22-1.47s-1.75-1.67-2.38-2.88-.94-2.75-.94-4.62c0-2.32.59-4.22 1.78-5.69 1.18-1.47 2.65-2.64 4.39-3.48 1.74-.85 3.61-1.43 5.59-1.74 1.99-.31 3.81-.49 5.46-.54H270s1 .02 1.41.07v-1c0-2.01-.48-3.54-1.44-4.59s-2.8-1.57-5.53-1.57c-2.01 0-3.71.26-5.09.77a18.01 18.01 0 0 0-4.02 2.11h-.67a9.87 9.87 0 0 1-.9-1.88c-.25-.67-.37-1.21-.37-1.61 0-.58.36-1.13 1.07-1.64s1.64-.97 2.78-1.37 2.4-.71 3.79-.94c1.38-.22 2.75-.33 4.09-.33 2.28 0 4.18.25 5.7.74 1.53.49 2.76 1.23 3.71 2.21s1.62 2.21 2 3.69c.38 1.47.58 3.17.58 5.09zm-5.63-8.58h-1.94c-1.43 0-2.88.09-4.35.27s-2.81.51-4.02 1-2.19 1.17-2.95 2.04-1.14 2.02-1.14 3.45c0 1.34.4 2.52 1.21 3.55.8 1.03 2.3 1.54 4.49 1.54 1.16 0 2.27-.17 3.32-.5s1.98-.75 2.78-1.24 1.44-1.03 1.91-1.61.7-1.14.7-1.67v-6.83zm26.54 12c1.29 0 2.42-.13 3.38-.4s1.79-.6 2.48-1 1.28-.81 1.78-1.24c.49-.42.89-.81 1.21-1.17.49.63.93 1.3 1.31 2.01s.57 1.27.57 1.68c0 .36-.11.73-.33 1.12s-.6.78-1.14 1.19c-1.03.77-2.34 1.42-3.95 1.94s-3.55.78-5.83.78c-2.1 0-4.08-.3-5.93-.9s-3.48-1.57-4.88-2.92c-1.4-1.34-2.5-3.09-3.32-5.26-.81-2.17-1.22-4.81-1.22-7.94 0-2.81.41-5.25 1.24-7.3s1.91-3.74 3.25-5.06 2.87-2.29 4.59-2.92c1.72-.62 3.49-.94 5.33-.94 2.28 0 4.23.38 5.86 1.14s2.96 1.78 3.99 3.05 1.79 2.75 2.28 4.42.74 3.41.74 5.19c0 .63-.01 1.26-.03 1.91s-.08 1.26-.17 1.84h-21.1c.13 3.24.99 5.85 2.58 7.82 1.56 1.97 4 2.96 7.31 2.96zm5.69-15.08c0-1.21-.12-2.32-.37-3.35a7.383 7.383 0 0 0-1.23-2.71c-.58-.78-1.35-1.4-2.3-1.84-.96-.45-2.12-.67-3.5-.67-2.31 0-4.21.76-5.7 2.28s-2.32 3.62-2.5 6.3h15.6zm15.75 12.66c0 .67.02 1.24.07 1.71.04.47.17.86.37 1.17s.51.55.94.7c.42.16 1.04.24 1.84.24v2.41c-.4.13-.95.25-1.64.33-.69.09-1.37.13-2.04.13-1.3 0-2.29-.2-2.98-.6s-1.21-.94-1.54-1.61c-.34-.67-.54-1.42-.6-2.25-.07-.83-.1-1.64-.1-2.45v-41h.4c.09 0 .21-.01.37-.03s.3-.03.44-.03c1.25 0 2.31.32 3.18.97s1.31 1.82 1.31 3.52v36.79zm50.98-16.88c0 4.06-.67 7.78-2.01 11.16-1.34 3.37-3.43 6.11-6.29 8.21-1.74 1.25-3.83 2.2-6.29 2.85-2.45.65-5.31.97-8.56.97h-10.43v-44.62c2.36-.27 4.45-.45 6.25-.54s3.49-.13 5.05-.13c4.28 0 7.85.58 10.7 1.74s5.14 2.75 6.85 4.76c1.72 2.01 2.93 4.36 3.64 7.04.74 2.66 1.09 5.52 1.09 8.56zm-5.96.37c0-2.5-.25-4.82-.74-6.95-.49-2.12-1.36-3.96-2.61-5.5s-2.91-2.74-4.99-3.59-4.68-1.28-7.81-1.28c-.89 0-1.82.02-2.78.07-.96.04-1.91.13-2.85.27v34.91h5.56c2.99 0 5.53-.47 7.6-1.41 2.08-.94 3.75-2.22 5.02-3.83s2.19-3.5 2.75-5.67c.57-2.18.85-4.52.85-7.02zm24.86 18.93c1.29 0 2.42-.13 3.38-.4s1.79-.6 2.48-1 1.28-.81 1.78-1.24c.49-.42.89-.81 1.21-1.17.49.63.93 1.3 1.31 2.01s.57 1.27.57 1.68c0 .36-.11.73-.33 1.12s-.6.78-1.14 1.19c-1.03.77-2.34 1.42-3.95 1.94s-3.55.78-5.83.78c-2.1 0-4.08-.3-5.93-.9s-3.48-1.57-4.88-2.92c-1.4-1.34-2.5-3.09-3.32-5.26-.81-2.17-1.22-4.81-1.22-7.94 0-2.81.41-5.25 1.24-7.3s1.91-3.74 3.25-5.06 2.87-2.29 4.59-2.92c1.72-.62 3.49-.94 5.33-.94 2.28 0 4.23.38 5.86 1.14s2.96 1.78 3.99 3.05 1.79 2.75 2.28 4.42.74 3.41.74 5.19c0 .63-.01 1.26-.03 1.91s-.08 1.26-.17 1.84h-21.1c.13 3.24.99 5.85 2.58 7.82 1.56 1.97 4 2.96 7.31 2.96zm5.69-15.08c0-1.21-.12-2.32-.37-3.35a7.383 7.383 0 0 0-1.23-2.71c-.58-.78-1.35-1.4-2.3-1.84-.96-.45-2.12-.67-3.5-.67-2.31 0-4.21.76-5.7 2.28s-2.32 3.62-2.5 6.3h15.6zm33.7 11.66c0 1.07.04 1.91.13 2.51s.26 1.05.5 1.34.58.48 1 .57.97.13 1.64.13v2.68c-.4.13-.89.25-1.47.33-.58.09-1.18.13-1.81.13-1.4 0-2.62-.28-3.66-.84s-1.65-1.55-1.83-2.98c-1.12 1.12-2.46 2.07-4.02 2.85s-3.62 1.17-6.16 1.17c-1.16 0-2.33-.13-3.52-.4-1.18-.27-2.26-.76-3.22-1.47s-1.75-1.67-2.38-2.88-.94-2.75-.94-4.62c0-2.32.59-4.22 1.78-5.69 1.18-1.47 2.65-2.64 4.39-3.48 1.74-.85 3.61-1.43 5.59-1.74 1.99-.31 3.81-.49 5.46-.54h1.41s1 .02 1.41.07v-1c0-2.01-.48-3.54-1.44-4.59s-2.8-1.57-5.53-1.57c-2.01 0-3.71.26-5.09.77a18.01 18.01 0 0 0-4.02 2.11h-.67a9.87 9.87 0 0 1-.9-1.88c-.25-.67-.37-1.21-.37-1.61 0-.58.36-1.13 1.07-1.64s1.64-.97 2.78-1.37 2.4-.71 3.79-.94c1.38-.22 2.75-.33 4.09-.33 2.28 0 4.18.25 5.7.74 1.53.49 2.76 1.23 3.71 2.21s1.62 2.21 2 3.69c.38 1.47.58 3.17.58 5.09zm-5.63-8.58h-1.94c-1.43 0-2.88.09-4.35.27s-2.81.51-4.02 1-2.19 1.17-2.95 2.04-1.14 2.02-1.14 3.45c0 1.34.4 2.52 1.21 3.55.8 1.03 2.3 1.54 4.49 1.54 1.16 0 2.27-.17 3.32-.5s1.98-.75 2.78-1.24 1.44-1.03 1.91-1.61.7-1.14.7-1.67v-6.83zm26.4 12c1.21 0 2.29-.19 3.25-.57s1.78-.81 2.45-1.31c.8-.54 1.52-1.16 2.14-1.88.36.36.81.9 1.37 1.64s.84 1.42.84 2.04c0 .63-.47 1.36-1.41 2.17-.85.77-2.07 1.43-3.65 1.97-1.59.54-3.52.81-5.8.81-1.43 0-3-.2-4.72-.6s-3.33-1.21-4.84-2.41-2.78-2.89-3.82-5.06-1.56-5.04-1.56-8.61c0-3.31.54-6.03 1.63-8.17 1.08-2.14 2.41-3.83 3.99-5.06 1.57-1.23 3.24-2.09 5.01-2.58 1.76-.49 3.32-.74 4.66-.74 1.61 0 3.05.17 4.32.5s2.37.75 3.28 1.25c.91.51 1.62 1.05 2.11 1.62s.74 1.12.74 1.65c0 .54-.18 1.14-.54 1.81s-.72 1.25-1.07 1.74h-.74c-.76-.89-1.74-1.73-2.95-2.51s-2.84-1.17-4.89-1.17c-1.7 0-3.15.29-4.35.87-1.21.58-2.2 1.4-2.98 2.45s-1.35 2.28-1.71 3.68c-.36 1.41-.54 2.92-.54 4.52 0 1.65.18 3.21.54 4.66s.93 2.71 1.71 3.79c.78 1.07 1.8 1.92 3.05 2.55 1.24.63 2.74.95 4.48.95zm41.27-12c0 2.19-.27 4.3-.8 6.33-.54 2.03-1.39 3.83-2.57 5.39s-2.71 2.81-4.58 3.75-4.14 1.41-6.82 1.41-4.94-.45-6.78-1.34c-1.85-.89-3.35-2.1-4.51-3.62s-2.01-3.29-2.54-5.33c-.54-2.03-.8-4.17-.8-6.4s.31-4.36.94-6.37 1.56-3.76 2.81-5.26 2.8-2.69 4.65-3.58 4.02-1.34 6.52-1.34c2.63 0 4.86.45 6.68 1.34 1.83.89 3.32 2.09 4.48 3.58 1.16 1.5 2 3.23 2.54 5.19.52 1.99.78 4.07.78 6.25zm-5.96 0c0-1.38-.12-2.76-.37-4.12s-.68-2.59-1.31-3.69a7.362 7.362 0 0 0-2.61-2.65c-1.12-.67-2.57-1-4.35-1-1.7 0-3.12.33-4.25 1s-2.04 1.55-2.71 2.65c-.67 1.09-1.15 2.32-1.44 3.69-.29 1.36-.44 2.74-.44 4.12s.12 2.79.37 4.22.7 2.71 1.37 3.85 1.56 2.08 2.68 2.81c1.12.74 2.55 1.11 4.29 1.11 1.79 0 3.26-.37 4.42-1.11s2.05-1.67 2.68-2.81c.62-1.14 1.06-2.42 1.31-3.85.24-1.42.36-2.83.36-4.22zm11.39-15.81c1.03 0 1.95.26 2.78.77s1.33 1.4 1.51 2.65c1.03-1.03 2.42-1.94 4.19-2.75 1.76-.8 3.85-1.21 6.26-1.21 3.04 0 5.36.67 6.97 2.01s2.66 3.01 3.15 5.02c.22.89.36 1.89.4 2.98.04 1.1.07 2.16.07 3.18v19.03h-5.7v-18.83c0-.85-.01-1.66-.03-2.45-.02-.78-.15-1.51-.37-2.18-.31-1.16-.96-2.05-1.94-2.68-.98-.62-2.43-.94-4.35-.94-2.55 0-4.58.5-6.1 1.51s-2.28 2.09-2.28 3.25v22.31h-5.7v-31.62h.33c.09 0 .21-.01.37-.03s.31-.02.44-.02zm45.56 27.81c1.29 0 2.42-.13 3.38-.4s1.79-.6 2.48-1 1.28-.81 1.78-1.24c.49-.42.89-.81 1.21-1.17.49.63.93 1.3 1.31 2.01s.57 1.27.57 1.68c0 .36-.11.73-.33 1.12s-.6.78-1.14 1.19c-1.03.77-2.34 1.42-3.95 1.94s-3.55.78-5.83.78c-2.1 0-4.08-.3-5.93-.9s-3.48-1.57-4.88-2.92c-1.4-1.34-2.5-3.09-3.32-5.26-.81-2.17-1.22-4.81-1.22-7.94 0-2.81.41-5.25 1.24-7.3s1.91-3.74 3.25-5.06 2.87-2.29 4.59-2.92c1.72-.62 3.49-.94 5.33-.94 2.28 0 4.23.38 5.86 1.14s2.96 1.78 3.99 3.05 1.79 2.75 2.28 4.42.74 3.41.74 5.19c0 .63-.01 1.26-.03 1.91s-.08 1.26-.17 1.84h-21.11c.13 3.24.99 5.85 2.58 7.82 1.57 1.97 4.01 2.96 7.32 2.96zm5.7-15.08c0-1.21-.12-2.32-.37-3.35s-.66-1.93-1.23-2.71c-.58-.78-1.35-1.4-2.3-1.84-.96-.45-2.12-.67-3.5-.67-2.31 0-4.21.76-5.7 2.28s-2.32 3.62-2.5 6.3h15.6zm27.99-11.46c.9.49 1.5.95 1.81 1.37.31.43.47.84.47 1.24 0 .49-.12 1.06-.37 1.71s-.55 1.29-.91 1.91l-.94.07c-.76-.94-1.87-1.75-3.33-2.45-1.46-.69-3.02-1.04-4.67-1.04-.58 0-1.22.06-1.92.17s-1.35.31-1.95.6c-.61.29-1.11.7-1.51 1.24s-.6 1.21-.6 2.01c0 1.43.64 2.46 1.92 3.08 1.28.63 2.86 1.16 4.74 1.61 1.34.31 2.65.7 3.9 1.17s2.37 1.07 3.33 1.81 1.73 1.66 2.29 2.78.84 2.5.84 4.15-.34 3.09-1.01 4.32-1.57 2.26-2.69 3.08c-1.12.83-2.43 1.45-3.93 1.88-1.5.42-3.06.64-4.67.64-1.57 0-2.98-.12-4.23-.37s-2.31-.55-3.16-.9c-1.12-.45-1.9-.9-2.35-1.37s-.67-.95-.67-1.44c0-.58.16-1.18.47-1.81.31-.62.71-1.34 1.21-2.14.31.27.75.6 1.31 1s1.23.78 2.01 1.14 1.64.66 2.58.9c.94.25 1.94.37 3.01.37.8 0 1.58-.08 2.34-.24s1.44-.42 2.04-.78 1.09-.85 1.47-1.48.57-1.42.57-2.36-.2-1.72-.6-2.33-.94-1.11-1.61-1.52c-.67-.4-1.42-.73-2.24-.98-.83-.25-1.66-.46-2.51-.64-1.3-.27-2.54-.61-3.72-1.03s-2.23-.99-3.15-1.7-1.65-1.6-2.21-2.67-.84-2.36-.84-3.87c0-1.47.31-2.77.94-3.91a8.15 8.15 0 0 1 2.55-2.8c1.08-.73 2.3-1.29 3.66-1.67 1.37-.38 2.79-.57 4.27-.57 1.7 0 3.26.18 4.67.54 1.41.37 2.54.79 3.39 1.28zm24.66 0c.9.49 1.5.95 1.81 1.37.31.43.47.84.47 1.24 0 .49-.12 1.06-.37 1.71s-.55 1.29-.91 1.91l-.94.07c-.76-.94-1.87-1.75-3.33-2.45-1.46-.69-3.02-1.04-4.67-1.04-.58 0-1.22.06-1.92.17s-1.35.31-1.95.6c-.61.29-1.11.7-1.51 1.24s-.6 1.21-.6 2.01c0 1.43.64 2.46 1.92 3.08 1.28.63 2.86 1.16 4.74 1.61 1.34.31 2.65.7 3.9 1.17s2.37 1.07 3.33 1.81 1.73 1.66 2.29 2.78.84 2.5.84 4.15-.34 3.09-1.01 4.32-1.57 2.26-2.69 3.08c-1.12.83-2.43 1.45-3.93 1.88-1.5.42-3.06.64-4.67.64-1.57 0-2.98-.12-4.23-.37s-2.31-.55-3.16-.9c-1.12-.45-1.9-.9-2.35-1.37s-.67-.95-.67-1.44c0-.58.16-1.18.47-1.81.31-.62.71-1.34 1.21-2.14.31.27.75.6 1.31 1s1.23.78 2.01 1.14 1.64.66 2.58.9c.94.25 1.94.37 3.01.37.8 0 1.58-.08 2.34-.24s1.44-.42 2.04-.78 1.09-.85 1.47-1.48.57-1.42.57-2.36-.2-1.72-.6-2.33-.94-1.11-1.61-1.52c-.67-.4-1.42-.73-2.24-.98-.83-.25-1.66-.46-2.51-.64-1.3-.27-2.54-.61-3.72-1.03s-2.23-.99-3.15-1.7-1.65-1.6-2.21-2.67-.84-2.36-.84-3.87c0-1.47.31-2.77.94-3.91a8.15 8.15 0 0 1 2.55-2.8c1.08-.73 2.3-1.29 3.66-1.67 1.37-.38 2.79-.57 4.27-.57 1.7 0 3.26.18 4.67.54 1.41.37 2.54.79 3.39 1.28zm23.52-14.6c.94 0 1.69.22 2.25.67s1.01 1.05 1.37 1.81l12.5 27.07 12.43-26.93c.49-1.07 1.1-1.78 1.83-2.11s1.45-.5 2.16-.5c.58 0 1.13.04 1.66.13s.95.18 1.26.27l3.13 44.62h-5.43L654.38 190l-11.89 25.06h-5.69l-11.36-23.92-2.48 34.1h-5.56l3.35-44.62c.31-.09.71-.18 1.21-.27.49-.1 1.05-.14 1.67-.14zm58.16 41.14c1.29 0 2.42-.13 3.38-.4s1.79-.6 2.48-1 1.28-.81 1.78-1.24c.49-.42.89-.81 1.21-1.17.49.63.93 1.3 1.31 2.01s.57 1.27.57 1.68c0 .36-.11.73-.33 1.12s-.6.78-1.14 1.19c-1.03.77-2.34 1.42-3.95 1.94s-3.55.78-5.83.78c-2.1 0-4.08-.3-5.93-.9s-3.48-1.57-4.88-2.92c-1.4-1.34-2.5-3.09-3.32-5.26-.81-2.17-1.22-4.81-1.22-7.94 0-2.81.41-5.25 1.24-7.3s1.91-3.74 3.25-5.06 2.87-2.29 4.59-2.92c1.72-.62 3.49-.94 5.33-.94 2.28 0 4.23.38 5.86 1.14s2.96 1.78 3.99 3.05 1.79 2.75 2.28 4.42.74 3.41.74 5.19c0 .63-.01 1.26-.03 1.91s-.08 1.26-.17 1.84h-21.11c.13 3.24.99 5.85 2.58 7.82 1.57 1.97 4.01 2.96 7.32 2.96zm5.69-15.08c0-1.21-.12-2.32-.37-3.35s-.66-1.93-1.23-2.71c-.58-.78-1.35-1.4-2.3-1.84-.96-.45-2.12-.67-3.5-.67-2.31 0-4.21.76-5.7 2.28s-2.32 3.62-2.5 6.3h15.6zm36.45 18.96h-5.56v-2.73c-.36.36-.8.77-1.34 1.22s-1.17.86-1.91 1.22-1.57.67-2.51.92-1.97.37-3.08.37c-1.74 0-3.42-.29-5.02-.87-1.61-.58-3.03-1.51-4.25-2.78s-2.2-2.95-2.91-5.03-1.07-4.61-1.07-7.6c0-2.95.37-5.49 1.11-7.64.74-2.14 1.72-3.9 2.95-5.26s2.66-2.38 4.29-3.05 3.32-1 5.06-1c2.01 0 3.72.33 5.12 1s2.56 1.43 3.45 2.28v-18.56h.4c.09 0 .21-.01.37-.03s.3-.03.44-.03c1.25 0 2.31.31 3.18.94s1.31 1.79 1.31 3.48v43.15zm-21.71-15.98c0 1.74.13 3.34.4 4.81s.74 2.75 1.41 3.84 1.56 1.94 2.66 2.54 2.46.9 4.07.9c1.08 0 2.07-.13 2.99-.4s1.72-.6 2.39-1 1.19-.87 1.55-1.4.54-1.07.54-1.6V201.3h.07c-.27-.27-.62-.6-1.04-1-.43-.4-.96-.78-1.61-1.14s-1.4-.66-2.25-.9c-.85-.25-1.82-.37-2.89-.37-2.56 0-4.57.96-6.05 2.87s-2.24 4.75-2.24 8.49zm34.37-25.83c0 1.03-.35 1.89-1.04 2.58s-1.55 1.04-2.58 1.04-1.89-.35-2.58-1.04-1.04-1.55-1.04-2.58c0-1.12.35-2.03 1.04-2.75.69-.71 1.55-1.07 2.58-1.07s1.89.36 2.58 1.07c.7.72 1.04 1.64 1.04 2.75zm-6.23 9.99h.4c.09 0 .21-.01.37-.03s.3-.03.44-.03c1.25 0 2.31.32 3.18.97s1.31 1.82 1.31 3.52v21.37c0 1.3.19 2.21.57 2.75s1.26.8 2.65.8v2.41c-.4.13-.95.25-1.64.33s-1.37.13-2.04.13c-1.3 0-2.29-.2-2.98-.6s-1.21-.94-1.54-1.61-.54-1.42-.6-2.25c-.07-.83-.1-1.64-.1-2.45v-25.31zm26.8 27.94c1.21 0 2.29-.19 3.25-.57s1.78-.81 2.45-1.31c.8-.54 1.52-1.16 2.14-1.88.36.36.81.9 1.37 1.64s.84 1.42.84 2.04c0 .63-.47 1.36-1.41 2.17-.85.77-2.07 1.43-3.65 1.97-1.59.54-3.52.81-5.79.81-1.43 0-3-.2-4.72-.6s-3.33-1.21-4.84-2.41-2.78-2.89-3.82-5.06-1.56-5.04-1.56-8.61c0-3.31.54-6.03 1.63-8.17 1.08-2.14 2.41-3.83 3.99-5.06s3.24-2.09 5.01-2.58c1.76-.49 3.32-.74 4.66-.74 1.61 0 3.05.17 4.32.5s2.37.75 3.28 1.25c.92.51 1.62 1.05 2.11 1.62s.74 1.12.74 1.65c0 .54-.18 1.14-.54 1.81s-.71 1.25-1.07 1.74h-.74c-.76-.89-1.74-1.73-2.95-2.51s-2.84-1.17-4.89-1.17c-1.7 0-3.15.29-4.35.87-1.21.58-2.2 1.4-2.98 2.45s-1.35 2.28-1.71 3.68c-.36 1.41-.54 2.92-.54 4.52 0 1.65.18 3.21.54 4.66s.93 2.71 1.71 3.79c.78 1.07 1.8 1.92 3.05 2.55 1.23.63 2.73.95 4.47.95zm37.19-3.42c0 1.07.04 1.91.13 2.51s.26 1.05.5 1.34c.25.29.58.48 1 .57s.97.13 1.64.13v2.68c-.4.13-.89.25-1.47.33-.58.09-1.18.13-1.81.13-1.4 0-2.62-.28-3.66-.84s-1.65-1.55-1.83-2.98c-1.12 1.12-2.46 2.07-4.02 2.85s-3.62 1.17-6.16 1.17c-1.16 0-2.33-.13-3.52-.4-1.18-.27-2.26-.76-3.22-1.47s-1.75-1.67-2.38-2.88-.94-2.75-.94-4.62c0-2.32.59-4.22 1.78-5.69 1.18-1.47 2.65-2.64 4.39-3.48 1.74-.85 3.61-1.43 5.59-1.74 1.99-.31 3.81-.49 5.46-.54h1.41c.54 0 1 .02 1.41.07v-1c0-2.01-.48-3.54-1.44-4.59s-2.8-1.57-5.53-1.57c-2.01 0-3.71.26-5.09.77s-2.73 1.22-4.02 2.11h-.67a9.87 9.87 0 0 1-.9-1.88c-.25-.67-.37-1.21-.37-1.61 0-.58.36-1.13 1.07-1.64s1.64-.97 2.78-1.37 2.4-.71 3.79-.94c1.38-.22 2.75-.33 4.09-.33 2.28 0 4.18.25 5.71.74 1.52.49 2.76 1.23 3.71 2.21s1.62 2.21 2 3.69c.38 1.47.58 3.17.58 5.09v13.18zm-5.63-8.58h-1.94c-1.43 0-2.88.09-4.35.27s-2.81.51-4.02 1-2.19 1.17-2.95 2.04-1.14 2.02-1.14 3.45c0 1.34.4 2.52 1.21 3.55s2.3 1.54 4.49 1.54c1.16 0 2.27-.17 3.32-.5s1.98-.75 2.78-1.24 1.44-1.03 1.91-1.61.7-1.14.7-1.67v-6.83zm18.02 9.58c0 .67.02 1.24.07 1.71.04.47.17.86.37 1.17s.51.55.94.7c.42.16 1.04.24 1.84.24v2.41c-.4.13-.95.25-1.64.33s-1.37.13-2.04.13c-1.3 0-2.29-.2-2.98-.6s-1.21-.94-1.54-1.61-.54-1.42-.6-2.25c-.07-.83-.1-1.64-.1-2.45v-41h.4c.09 0 .21-.01.37-.03s.3-.03.44-.03c1.25 0 2.31.32 3.18.97s1.31 1.82 1.31 3.52v36.79zm48.51 2.89c-.22.22-.65.58-1.27 1.07-.63.49-1.46.98-2.51 1.47s-2.3.93-3.75 1.31-3.14.57-5.06.57c-3.44 0-6.41-.58-8.91-1.74s-4.55-2.77-6.14-4.82-2.77-4.51-3.52-7.37-1.13-5.96-1.13-9.31.39-6.47 1.16-9.35 1.97-5.36 3.58-7.44c1.62-2.08 3.67-3.71 6.14-4.89 2.48-1.18 5.44-1.78 8.88-1.78 1.74 0 3.42.2 5.03.6s3.03.92 4.25 1.54c1.23.63 2.21 1.32 2.95 2.08s1.11 1.47 1.11 2.14c0 .58-.19 1.2-.57 1.84-.38.65-.77 1.22-1.17 1.71h-1.21a25.01 25.01 0 0 0-1.71-1.68c-.65-.58-1.4-1.09-2.24-1.54-.85-.45-1.81-.81-2.88-1.11-1.07-.29-2.26-.44-3.55-.44-2.68 0-4.9.53-6.67 1.57a12.24 12.24 0 0 0-4.22 4.15c-1.05 1.72-1.8 3.66-2.25 5.83s-.67 4.39-.67 6.67c0 2.32.23 4.58.7 6.77s1.26 4.14 2.38 5.86 2.59 3.09 4.42 4.12 4.11 1.54 6.83 1.54c1.47 0 2.81-.21 4.02-.64 1.21-.42 2.24-.93 3.12-1.51.87-.58 1.6-1.14 2.18-1.67.58-.54.98-.94 1.21-1.21.49.4 1.02.97 1.57 1.71.56.74.84 1.37.84 1.91 0 .4-.09.75-.27 1.04-.18.31-.4.64-.67 1zm19.23-.47c1.29 0 2.42-.13 3.38-.4s1.79-.6 2.48-1 1.28-.81 1.78-1.24c.49-.42.89-.81 1.21-1.17.49.63.93 1.3 1.31 2.01s.57 1.27.57 1.68c0 .36-.11.73-.33 1.12s-.6.78-1.14 1.19c-1.03.77-2.34 1.42-3.95 1.94s-3.55.78-5.83.78c-2.1 0-4.08-.3-5.93-.9s-3.48-1.57-4.88-2.92c-1.4-1.34-2.5-3.09-3.32-5.26-.81-2.17-1.22-4.81-1.22-7.94 0-2.81.41-5.25 1.24-7.3s1.91-3.74 3.25-5.06 2.87-2.29 4.59-2.92c1.72-.62 3.49-.94 5.33-.94 2.28 0 4.23.38 5.86 1.14s2.96 1.78 3.99 3.05 1.79 2.75 2.28 4.42.74 3.41.74 5.19c0 .63-.01 1.26-.03 1.91s-.08 1.26-.17 1.84h-21.11c.13 3.24.99 5.85 2.58 7.82 1.56 1.97 4.01 2.96 7.32 2.96zm5.69-15.08c0-1.21-.12-2.32-.37-3.35s-.66-1.93-1.23-2.71c-.58-.78-1.35-1.4-2.3-1.84-.96-.45-2.12-.67-3.5-.67-2.31 0-4.21.76-5.7 2.28s-2.32 3.62-2.5 6.3h15.6zm11.26-12.73c1.03 0 1.95.26 2.78.77s1.33 1.4 1.51 2.65c1.03-1.03 2.42-1.94 4.19-2.75 1.76-.8 3.85-1.21 6.26-1.21 3.04 0 5.36.67 6.97 2.01s2.66 3.01 3.15 5.02c.22.89.36 1.89.4 2.98.04 1.1.07 2.16.07 3.18v19.03h-5.7v-18.83c0-.85-.01-1.66-.03-2.45-.02-.78-.15-1.51-.37-2.18-.31-1.16-.96-2.05-1.94-2.68-.98-.62-2.43-.94-4.35-.94-2.55 0-4.58.5-6.1 1.51s-2.28 2.09-2.28 3.25v22.31h-5.7v-31.62h.33c.09 0 .21-.01.37-.03s.3-.02.44-.02zm32.02 27.67c-.31-.85-.5-1.78-.57-2.78s-.1-2-.1-2.98v-31.36h.4c.09 0 .21-.01.37-.03s.3-.03.44-.03c1.21 0 2.25.31 3.15.93.89.62 1.34 1.75 1.34 3.39v5.32h9.98v4.89h-9.98v17.29c0 3.66 1.45 5.49 4.36 5.49.71 0 1.38-.12 2.01-.37.62-.24 1.18-.54 1.67-.87s.91-.66 1.24-.97.55-.54.64-.67c.54.67.99 1.32 1.37 1.94.38.63.57 1.23.57 1.81 0 .4-.2.84-.6 1.31s-.96.91-1.68 1.31c-.71.4-1.6.74-2.65 1-1.05.27-2.2.4-3.45.4-2.32 0-4.18-.45-5.56-1.34-1.39-.88-2.37-2.11-2.95-3.68zm34.04.14c1.29 0 2.42-.13 3.38-.4s1.79-.6 2.48-1 1.28-.81 1.78-1.24c.49-.42.89-.81 1.21-1.17.49.63.93 1.3 1.31 2.01s.57 1.27.57 1.68c0 .36-.11.73-.33 1.12s-.6.78-1.14 1.19c-1.03.77-2.34 1.42-3.95 1.94s-3.55.78-5.83.78c-2.1 0-4.08-.3-5.93-.9s-3.48-1.57-4.88-2.92c-1.4-1.34-2.5-3.09-3.32-5.26-.81-2.17-1.22-4.81-1.22-7.94 0-2.81.41-5.25 1.24-7.3s1.91-3.74 3.25-5.06 2.87-2.29 4.59-2.92c1.72-.62 3.49-.94 5.33-.94 2.28 0 4.23.38 5.86 1.14s2.96 1.78 3.99 3.05 1.79 2.75 2.28 4.42.74 3.41.74 5.19c0 .63-.01 1.26-.03 1.91s-.08 1.26-.17 1.84h-21.11c.13 3.24.99 5.85 2.58 7.82 1.57 1.97 4.01 2.96 7.32 2.96zm5.69-15.08c0-1.21-.12-2.32-.37-3.35s-.66-1.93-1.23-2.71c-.58-.78-1.35-1.4-2.3-1.84-.96-.45-2.12-.67-3.5-.67-2.31 0-4.21.76-5.7 2.28s-2.32 3.62-2.5 6.3h15.6zm11.32-12.73c1.03 0 1.95.26 2.78.77s1.33 1.37 1.51 2.58c.62-.94 1.56-1.82 2.81-2.65s2.7-1.24 4.36-1.24c.49 0 1.02.04 1.57.13.56.09 1.08.23 1.57.44s.89.48 1.21.84c.31.36.47.83.47 1.41 0 .71-.18 1.49-.54 2.31-.36.83-.71 1.51-1.07 2.04-.58-.54-1.21-.95-1.88-1.24s-1.52-.44-2.55-.44c-.76 0-1.49.12-2.18.37s-1.31.58-1.84 1c-.54.42-.96.9-1.27 1.44s-.47 1.09-.47 1.67v22.24h-5.7v-31.62h.47c.13 0 .27-.01.4-.03s.26-.02.35-.02z" fill="#007cc1"/><path d="M91.49 141.89c0 1.9-.32 3.49-.97 4.74-.65 1.26-1.56 2.26-2.75 3.01s-2.64 1.28-4.33 1.58c-1.7.31-3.59.46-5.66.46h-8.82v-34.02c1.39-.14 2.72-.25 3.98-.33s2.7-.13 4.33-.13c2.35 0 4.33.19 5.94.56s2.91.92 3.9 1.63 1.7 1.61 2.14 2.68.66 2.29.66 3.65c0 1.19-.17 2.24-.51 3.14s-.76 1.68-1.25 2.32c-.49.65-1.03 1.17-1.61 1.58s-1.11.71-1.58.92c.54.14 1.2.37 1.96.69s1.48.79 2.14 1.4 1.23 1.41 1.71 2.4c.48.98.72 2.22.72 3.72zm-6.02-16.02c0-1.05-.21-1.91-.64-2.58-.43-.66-1.01-1.17-1.76-1.53s-1.64-.6-2.68-.74-2.17-.2-3.39-.2c-.82 0-1.53.02-2.14.05s-1.11.09-1.48.15v11.22h4.84c2.11 0 3.84-.55 5.2-1.66 1.37-1.1 2.05-2.67 2.05-4.71zm-8.87 22.08c1.53 0 2.92-.07 4.18-.2 1.26-.14 2.35-.41 3.26-.84.92-.42 1.63-1.04 2.14-1.85s.76-1.9.76-3.25c0-1.18-.24-2.16-.71-2.92-.48-.76-1.12-1.37-1.94-1.83s-1.74-.77-2.78-.94-2.12-.25-3.24-.25h-4.9v12.09h3.23zm30.29.77c.99 0 1.84-.1 2.58-.31.73-.2 1.36-.46 1.89-.76a9.043 9.043 0 0 0 2.27-1.83c.37.48.71.99.99 1.53.29.54.43.97.43 1.27 0 .28-.09.56-.25.85-.17.29-.46.59-.87.9-.78.59-1.79 1.08-3.01 1.47s-2.7.59-4.44.59c-1.6 0-3.1-.23-4.51-.69s-2.65-1.2-3.71-2.22-1.91-2.35-2.52-4c-.62-1.65-.93-3.66-.93-6.04 0-2.14.31-3.99.94-5.56.63-1.56 1.45-2.85 2.47-3.85s2.18-1.74 3.49-2.22 2.66-.71 4.05-.71c1.73 0 3.22.29 4.46.87s2.25 1.35 3.03 2.32 1.36 2.09 1.73 3.37.56 2.59.56 3.95c0 .48-.01.96-.03 1.45s-.06.96-.13 1.4H99.34c.1 2.47.76 4.45 1.96 5.96 1.21 1.51 3.07 2.26 5.59 2.26zm4.33-11.48c0-.92-.09-1.77-.28-2.55s-.5-1.47-.94-2.07c-.44-.59-1.02-1.06-1.75-1.4s-1.62-.51-2.67-.51c-1.76 0-3.21.58-4.34 1.73-1.13 1.16-1.77 2.75-1.9 4.79h11.88zm9.18 11.38a7.46 7.46 0 0 1-.43-2.12c-.05-.76-.08-1.52-.08-2.27v-23.87h.31c.07 0 .16-.01.28-.03s.23-.03.33-.03c.92 0 1.72.24 2.4.71s1.02 1.33 1.02 2.58v4.05h7.6v3.72h-7.6v13.16c0 2.79 1.1 4.18 3.32 4.18.54 0 1.05-.09 1.53-.28a6.984 6.984 0 0 0 2.22-1.4c.25-.24.42-.41.48-.51.41.51.76 1 1.05 1.48s.43.94.43 1.38c0 .31-.15.64-.46.99-.31.36-.73.69-1.28.99-.54.31-1.22.56-2.01.76-.8.2-1.67.31-2.63.31-1.77 0-3.18-.34-4.23-1.02-1.06-.66-1.8-1.59-2.25-2.78zm32.08-11.27c0-.65-.01-1.27-.03-1.86s-.11-1.15-.28-1.66c-.24-.88-.73-1.56-1.48-2.04s-1.85-.71-3.32-.71c-.95 0-1.83.11-2.63.33s-1.48.5-2.04.84-.99.73-1.3 1.17-.46.88-.46 1.33v16.93h-4.33v-36.16h.25c.07 0 .16-.01.28-.03s.23-.03.33-.03c.95 0 1.76.24 2.42.71.66.48.99 1.36.99 2.65v11.32c.88-.99 2.01-1.73 3.37-2.24s2.81-.77 4.33-.77c1.19 0 2.24.15 3.14.43.9.29 1.67.68 2.29 1.17a6.756 6.756 0 0 1 2.43 3.75c.17.68.27 1.44.31 2.27.03.83.05 1.64.05 2.42v14.48h-4.33v-14.3zm23.67 14.33h-4.54v-34.17c.14 0 .28-.02.41-.05.14 0 .27-.01.41-.03s.29-.03.46-.03c.31 0 .64.04 1.01.13.36.09.71.24 1.06.46.34.22.63.54.85.97s.34.98.34 1.66zm19.17-23.16c.68.37 1.14.72 1.38 1.05.24.32.36.64.36.94 0 .37-.09.81-.28 1.3s-.42.98-.69 1.45l-.72.05c-.58-.71-1.43-1.33-2.53-1.86-1.11-.53-2.3-.79-3.56-.79-.44 0-.93.04-1.46.13s-1.02.24-1.49.46c-.46.22-.84.54-1.15.94-.31.41-.46.92-.46 1.53 0 1.09.49 1.87 1.46 2.35s2.18.88 3.61 1.22c1.02.24 2.01.54 2.97.89.96.36 1.8.82 2.53 1.38s1.31 1.27 1.74 2.12.64 1.9.64 3.16-.26 2.35-.77 3.29-1.19 1.72-2.05 2.35c-.85.63-1.85 1.11-2.99 1.43s-2.33.48-3.55.48c-1.19 0-2.27-.09-3.22-.28s-1.76-.42-2.4-.69c-.85-.34-1.45-.69-1.79-1.05s-.51-.72-.51-1.1c0-.44.12-.9.36-1.38s.54-1.02.92-1.63c.24.2.57.46.99.76.43.31.93.6 1.53.87.59.27 1.25.5 1.96.69s1.48.28 2.3.28c.61 0 1.21-.06 1.79-.18s1.1-.32 1.56-.59.83-.65 1.12-1.13.43-1.08.43-1.8-.15-1.31-.46-1.77-.71-.85-1.22-1.16-1.08-.56-1.71-.74c-.63-.19-1.27-.35-1.91-.49-.99-.2-1.93-.47-2.83-.79s-1.7-.75-2.4-1.3a6.04 6.04 0 0 1-1.68-2.03c-.43-.81-.64-1.79-.64-2.95 0-1.12.24-2.11.72-2.97s1.13-1.57 1.94-2.13c.82-.56 1.75-.98 2.79-1.27s2.12-.43 3.25-.43c1.3 0 2.48.14 3.56.41 1.05.29 1.91.61 2.56.98zm7.65-.97c.78 0 1.49.2 2.12.59s1.01 1.05 1.15 1.96c.48-.71 1.19-1.39 2.14-2.01.95-.63 2.06-.94 3.32-.94.37 0 .77.03 1.2.1.42.07.82.18 1.2.33.37.15.68.37.92.64s.36.63.36 1.07c0 .54-.14 1.13-.41 1.76s-.54 1.15-.82 1.56c-.44-.41-.92-.72-1.43-.94s-1.16-.33-1.94-.33c-.58 0-1.13.09-1.66.28s-.99.44-1.4.76-.73.69-.97 1.1-.36.83-.36 1.27v16.93h-4.33v-24.07h.36c.1 0 .2-.01.31-.03.09-.02.17-.03.24-.03zm33.25 18.57c0 .82.03 1.45.1 1.91s.19.8.38 1.02.44.37.76.43c.32.07.74.1 1.25.1v2.04c-.31.1-.68.19-1.12.25-.44.07-.9.1-1.38.1-1.07 0-2-.21-2.79-.64-.79-.42-1.26-1.18-1.39-2.27-.85.85-1.87 1.57-3.06 2.17-1.19.59-2.75.89-4.69.89-.88 0-1.78-.1-2.68-.31-.9-.2-1.72-.58-2.45-1.12s-1.33-1.28-1.81-2.19c-.48-.92-.71-2.09-.71-3.52 0-1.77.45-3.21 1.35-4.33s2.01-2.01 3.34-2.65c1.33-.65 2.75-1.09 4.26-1.33s2.9-.37 4.16-.41h1.07c.41 0 .76.02 1.07.05v-.76c0-1.53-.37-2.69-1.1-3.49s-2.13-1.2-4.21-1.2c-1.53 0-2.82.2-3.88.59-1.05.39-2.07.93-3.06 1.61h-.51c-.27-.44-.5-.92-.69-1.43s-.28-.92-.28-1.22c0-.44.27-.86.82-1.25.54-.39 1.25-.74 2.12-1.05s1.83-.54 2.88-.71 2.09-.25 3.11-.25c1.73 0 3.18.19 4.34.56s2.1.94 2.83 1.68c.72.75 1.23 1.68 1.52 2.81.29 1.12.44 2.41.44 3.88v10.04zm-4.28-6.53h-1.48c-1.09 0-2.19.07-3.31.2-1.12.14-2.14.39-3.06.76s-1.67.89-2.24 1.56c-.58.66-.87 1.54-.87 2.63 0 1.02.31 1.92.92 2.7s1.75 1.17 3.42 1.17c.88 0 1.73-.13 2.52-.38.8-.25 1.5-.57 2.12-.94.61-.37 1.1-.78 1.45-1.22.36-.44.54-.87.54-1.28v-5.2zm21.27 9.13c.99 0 1.84-.1 2.58-.31.73-.2 1.36-.46 1.89-.76a9.043 9.043 0 0 0 2.27-1.83c.37.48.71.99.99 1.53.29.54.43.97.43 1.27 0 .28-.09.56-.25.85-.17.29-.46.59-.87.9-.78.59-1.79 1.08-3.01 1.47-1.22.4-2.7.59-4.44.59-1.6 0-3.1-.23-4.51-.69s-2.65-1.2-3.71-2.22-1.91-2.35-2.52-4c-.62-1.65-.93-3.66-.93-6.04 0-2.14.31-3.99.94-5.56.63-1.56 1.45-2.85 2.47-3.85s2.18-1.74 3.49-2.22 2.66-.71 4.05-.71c1.73 0 3.22.29 4.46.87s2.25 1.35 3.03 2.32 1.36 2.09 1.73 3.37.56 2.59.56 3.95c0 .48-.01.96-.03 1.45s-.06.96-.13 1.4h-16.07c.1 2.47.76 4.45 1.96 5.96 1.24 1.51 3.1 2.26 5.62 2.26zm4.33-11.48c0-.92-.09-1.77-.28-2.55s-.5-1.47-.94-2.07c-.44-.59-1.02-1.06-1.75-1.4s-1.62-.51-2.67-.51c-1.76 0-3.21.58-4.34 1.73-1.13 1.16-1.77 2.75-1.9 4.79h11.88zm13.06 9.64c0 .51.02.94.05 1.3s.13.66.28.89c.15.24.39.42.71.54s.79.18 1.4.18v1.84c-.31.1-.72.19-1.25.25-.53.07-1.05.1-1.56.1-.99 0-1.74-.15-2.27-.46s-.92-.71-1.17-1.22c-.26-.51-.41-1.08-.46-1.71s-.08-1.25-.08-1.86v-31.21h.31c.07 0 .16-.01.28-.03s.23-.03.33-.03c.95 0 1.76.25 2.42.74s.99 1.39.99 2.68v28zm15.35-29.37c.14 0 .27-.02.41-.05.14 0 .27-.01.41-.03s.29-.03.46-.03c.31 0 .64.04.99.13.36.09.7.24 1.02.46s.59.54.82.97c.22.43.33.98.33 1.66v27.18h11.83c1.09 0 1.87.26 2.35.79s.71 1.17.71 1.91c0 .17-.01.32-.03.46s-.03.25-.03.36v.36h-19.28v-34.17zm40.64 28.61c0 .82.03 1.45.1 1.91s.19.8.38 1.02.44.37.76.43c.32.07.74.1 1.25.1v2.04c-.31.1-.68.19-1.12.25-.44.07-.9.1-1.38.1-1.07 0-2-.21-2.79-.64-.79-.42-1.26-1.18-1.39-2.27-.85.85-1.87 1.57-3.06 2.17-1.19.59-2.75.89-4.69.89-.88 0-1.78-.1-2.68-.31-.9-.2-1.72-.58-2.45-1.12s-1.33-1.28-1.81-2.19c-.48-.92-.71-2.09-.71-3.52 0-1.77.45-3.21 1.35-4.33s2.01-2.01 3.34-2.65c1.33-.65 2.75-1.09 4.26-1.33s2.9-.37 4.16-.41h1.07c.41 0 .76.02 1.07.05v-.76c0-1.53-.37-2.69-1.1-3.49s-2.13-1.2-4.21-1.2c-1.53 0-2.82.2-3.88.59-1.05.39-2.07.93-3.06 1.61h-.51c-.27-.44-.5-.92-.69-1.43s-.28-.92-.28-1.22c0-.44.27-.86.82-1.25.54-.39 1.25-.74 2.12-1.05s1.83-.54 2.88-.71 2.09-.25 3.11-.25c1.73 0 3.18.19 4.34.56s2.1.94 2.83 1.68c.72.75 1.23 1.68 1.52 2.81.29 1.12.44 2.41.44 3.88v10.04zm-4.28-6.53h-1.48c-1.09 0-2.19.07-3.31.2-1.12.14-2.14.39-3.06.76s-1.67.89-2.24 1.56c-.58.66-.87 1.54-.87 2.63 0 1.02.31 1.92.92 2.7s1.75 1.17 3.42 1.17c.88 0 1.73-.13 2.52-.38.8-.25 1.5-.57 2.12-.94.61-.37 1.1-.78 1.45-1.22.36-.44.54-.87.54-1.28v-5.2zm26.13-2.24c0-.65-.01-1.27-.03-1.86s-.11-1.15-.28-1.66c-.24-.88-.73-1.56-1.48-2.04s-1.85-.71-3.32-.71c-.95 0-1.83.11-2.63.33s-1.48.5-2.04.84-.99.73-1.3 1.17-.46.88-.46 1.33v16.93h-4.33v-36.16h.25c.07 0 .16-.01.28-.03s.23-.03.33-.03c.95 0 1.76.24 2.42.71.66.48.99 1.36.99 2.65v11.32c.88-.99 2.01-1.73 3.37-2.24s2.81-.77 4.33-.77c1.19 0 2.24.15 3.14.43.9.29 1.67.68 2.29 1.17a6.756 6.756 0 0 1 2.43 3.75c.17.68.27 1.44.31 2.27.03.83.05 1.64.05 2.42v14.48h-4.33v-14.3zm20.87 11.37c.99 0 1.84-.1 2.58-.31.73-.2 1.36-.46 1.89-.76a9.043 9.043 0 0 0 2.27-1.83c.37.48.71.99.99 1.53.29.54.43.97.43 1.27 0 .28-.09.56-.25.85-.17.29-.46.59-.87.9-.78.59-1.78 1.08-3.01 1.47-1.22.4-2.7.59-4.44.59-1.6 0-3.1-.23-4.51-.69s-2.65-1.2-3.71-2.22c-1.07-1.02-1.91-2.35-2.52-4-.62-1.65-.93-3.66-.93-6.04 0-2.14.31-3.99.94-5.56.63-1.56 1.45-2.85 2.47-3.85s2.18-1.74 3.49-2.22 2.66-.71 4.05-.71c1.73 0 3.22.29 4.46.87s2.25 1.35 3.03 2.32 1.36 2.09 1.73 3.37.56 2.59.56 3.95c0 .48-.01.96-.03 1.45s-.06.96-.13 1.4h-16.06c.1 2.47.76 4.45 1.96 5.96 1.23 1.51 3.09 2.26 5.61 2.26zm4.34-11.48c0-.92-.09-1.77-.28-2.55s-.5-1.47-.94-2.07c-.44-.59-1.02-1.06-1.75-1.4s-1.62-.51-2.67-.51c-1.76 0-3.21.58-4.34 1.73-1.13 1.16-1.77 2.75-1.9 4.79h11.88zm18.97 17.75a33.55 33.55 0 0 1-1.23 3.11c-.44.99-.99 1.84-1.63 2.58a7.34 7.34 0 0 1-2.37 1.76c-.94.44-2.07.66-3.39.66-1.29 0-2.37-.18-3.24-.55s-1.3-.94-1.3-1.71c0-.47.13-.96.38-1.46.25-.51.52-.95.79-1.32.27.24.69.52 1.25.84s1.27.48 2.12.48c1.19 0 2.15-.45 2.89-1.33.73-.89 1.39-2.26 1.97-4.11l.71-2.31h-1.73l-8.25-23.66c.71-.27 1.46-.41 2.24-.41.88 0 1.6.29 2.14.87s.95 1.26 1.22 2.04l5.61 17.39 5.61-16.93c.1-.37.24-.76.41-1.15s.4-.76.69-1.1.64-.61 1.05-.82c.41-.2.9-.31 1.48-.31.68 0 1.31.15 1.89.46zm24.98-23h16.22v-14.48c.14 0 .27-.02.41-.05.14 0 .27-.01.41-.03s.29-.03.46-.03c.31 0 .64.04.99.13.36.09.7.24 1.02.46s.59.54.82.97c.22.43.33.98.33 1.66v31.06h-4.44v-15.81H417.6v15.81h-4.44v-34.17c.13 0 .27-.02.41-.05.13 0 .27-.01.41-.03.13-.02.29-.03.46-.03.34 0 .7.04 1.07.13s.71.24 1.02.46.56.54.76.97.31.98.31 1.66zm37.2 16.73c.99 0 1.84-.1 2.58-.31.73-.2 1.36-.46 1.89-.76a9.043 9.043 0 0 0 2.27-1.83c.37.48.71.99.99 1.53.29.54.43.97.43 1.27 0 .28-.09.56-.25.85-.17.29-.46.59-.87.9-.78.59-1.79 1.08-3.01 1.47-1.22.4-2.7.59-4.44.59-1.6 0-3.1-.23-4.51-.69s-2.65-1.2-3.71-2.22-1.91-2.35-2.52-4c-.62-1.65-.93-3.66-.93-6.04 0-2.14.31-3.99.94-5.56.63-1.56 1.45-2.85 2.47-3.85s2.18-1.74 3.49-2.22 2.66-.71 4.06-.71c1.73 0 3.22.29 4.46.87s2.25 1.35 3.03 2.32 1.36 2.09 1.73 3.37.56 2.59.56 3.95c0 .48-.01.96-.03 1.45s-.06.96-.13 1.4h-16.07c.1 2.47.76 4.45 1.96 5.96 1.24 1.51 3.1 2.26 5.61 2.26zm4.34-11.48c0-.92-.09-1.77-.28-2.55s-.5-1.47-.94-2.07c-.44-.59-1.02-1.06-1.75-1.4s-1.62-.51-2.67-.51c-1.76 0-3.21.58-4.34 1.73-1.13 1.16-1.77 2.75-1.9 4.79h11.88zm26.72 8.88c0 .82.03 1.45.1 1.91s.19.8.38 1.02.44.37.76.43c.32.07.74.1 1.25.1v2.04c-.31.1-.68.19-1.12.25-.44.07-.9.1-1.38.1-1.07 0-2-.21-2.79-.64-.79-.42-1.26-1.18-1.39-2.27-.85.85-1.87 1.57-3.06 2.17-1.19.59-2.75.89-4.69.89-.88 0-1.78-.1-2.68-.31-.9-.2-1.72-.58-2.45-1.12s-1.33-1.28-1.81-2.19c-.48-.92-.71-2.09-.71-3.52 0-1.77.45-3.21 1.35-4.33s2.01-2.01 3.34-2.65c1.33-.65 2.75-1.09 4.26-1.33s2.9-.37 4.16-.41h1.07c.41 0 .76.02 1.07.05v-.76c0-1.53-.37-2.69-1.1-3.49s-2.13-1.2-4.21-1.2c-1.53 0-2.82.2-3.88.59-1.05.39-2.07.93-3.06 1.61h-.51c-.27-.44-.5-.92-.69-1.43s-.28-.92-.28-1.22c0-.44.27-.86.82-1.25.54-.39 1.25-.74 2.12-1.05s1.83-.54 2.88-.71 2.09-.25 3.11-.25c1.73 0 3.18.19 4.34.56s2.1.94 2.83 1.68c.72.75 1.23 1.68 1.52 2.81.29 1.12.44 2.41.44 3.88v10.04zm-4.28-6.53h-1.48c-1.09 0-2.19.07-3.32.2-1.12.14-2.14.39-3.06.76s-1.67.89-2.24 1.56c-.58.66-.87 1.54-.87 2.63 0 1.02.31 1.92.92 2.7s1.75 1.17 3.42 1.17c.88 0 1.73-.13 2.52-.38.8-.25 1.5-.57 2.12-.94.61-.37 1.1-.78 1.45-1.22.36-.44.54-.87.54-1.28zm14.79 7.29c0 .51.02.94.05 1.3s.13.66.28.89c.15.24.39.42.71.54s.79.18 1.4.18v1.84c-.31.1-.72.19-1.25.25-.53.07-1.05.1-1.56.1-.99 0-1.74-.15-2.27-.46s-.92-.71-1.17-1.22c-.26-.51-.41-1.08-.46-1.71s-.08-1.25-.08-1.86v-31.21h.31c.07 0 .16-.01.28-.03s.23-.03.33-.03c.95 0 1.76.25 2.42.74s.99 1.39.99 2.68v28zm6.52 1.74a7.46 7.46 0 0 1-.43-2.12c-.05-.76-.08-1.52-.08-2.27v-23.87h.31c.07 0 .16-.01.28-.03s.23-.03.33-.03c.92 0 1.72.24 2.4.71s1.02 1.33 1.02 2.58v4.05h7.6v3.72h-7.6v13.16c0 2.79 1.1 4.18 3.32 4.18.54 0 1.05-.09 1.53-.28s.9-.41 1.27-.66.69-.5.94-.74.42-.41.49-.51c.41.51.76 1 1.05 1.48s.43.94.43 1.38c0 .31-.15.64-.46.99-.31.36-.73.69-1.28.99-.54.31-1.22.56-2.01.76-.8.2-1.68.31-2.63.31-1.77 0-3.18-.34-4.23-1.02-1.06-.66-1.81-1.59-2.25-2.78zm32.44-11.27c0-.65-.01-1.27-.03-1.86s-.11-1.15-.28-1.66c-.24-.88-.73-1.56-1.48-2.04s-1.85-.71-3.32-.71c-.95 0-1.83.11-2.63.33s-1.48.5-2.04.84-.99.73-1.3 1.17-.46.88-.46 1.33v16.93h-4.33v-36.16h.25c.07 0 .16-.01.28-.03s.23-.03.33-.03c.95 0 1.76.24 2.42.71.66.48.99 1.36.99 2.65v11.32c.88-.99 2.01-1.73 3.37-2.24s2.81-.77 4.33-.77c1.19 0 2.23.15 3.14.43.9.29 1.67.68 2.3 1.17s1.15 1.06 1.56 1.71.7 1.33.87 2.04c.17.68.27 1.44.31 2.27.03.83.05 1.64.05 2.42v14.48h-4.33z" fill="#183e75"/><path d="M632.15 102.17c.57.31.67 1 .49 1.33-.17.33-21.28 40.21-21.37 40.39-.11.21-.34.47-.74.54-.39.07-39.17 7.18-39.39 7.22-1.46.25-2.25-1.6-1.09-2.49l21.25-16.35s-32.33-20.11-32.8-20.4c-1.2-.75-.79-2.59.62-2.74 1.37-.15 29.35-3.09 29.35-3.09s-19.54-34.85-19.93-35.54c-.71-1.27.66-2.73 2.01-2.01 1.36.73 61.6 33.14 61.6 33.14z" fill="#009edf"/><path d="M632.15 102.17c.57.31.67 1 .49 1.33-.17.33-21.28 40.21-21.37 40.39-.11.21-.34.47-.74.54-.39.07-.68-.1-.74-.14l-18.48-11.49 8.3-6.39-11.13-19.84 43.07-4.53c.35-.02.6.13.6.13z" fill="#0069b4"/><path d="M632.15 102.17c.57.31.67 1 .49 1.33-.17.33-21.28 40.21-21.37 40.39-.11.21-.34.47-.74.54-.39.07-.68-.1-.74-.14-.01-.01-.22-.12-.36-.36l-9.83-17.52 31.4-24.16c.17-.12.32-.19.55-.21.34-.02.6.13.6.13z" fill="#004994"/></g></switch></svg>